<?xml version="1.0" encoding="UTF-8" standalone="no"?>
<!DOCTYPE svg PUBLIC "-//W3C//DTD SVG 1.1//EN"
 "http://www.w3.org/Graphics/SVG/1.1/DTD/svg11.dtd">
<!-- Generated by graphviz version 13.1.1 (0)
 -->
<!-- Title: G Pages: 1 -->
<svg width="332pt" height="98pt"
 viewBox="0.00 0.00 332.00 98.00" xmlns="http://www.w3.org/2000/svg" xmlns:xlink="http://www.w3.org/1999/xlink">
<g id="graph0" class="graph" transform="scale(1 1) rotate(0) translate(4 94)">
<title>G</title>
<polygon fill="white" stroke="none" points="-4,4 -4,-94 328,-94 328,4 -4,4"/>
<!-- 1 -->
<g id="node1" class="node">
<title>1</title>
<ellipse fill="none" stroke="black" cx="27" cy="-45" rx="27" ry="18"/>
<text xml:space="preserve" text-anchor="middle" x="27" y="-40.33" font-family="Times,serif" font-size="14.00">1</text>
</g>
<!-- 4 -->
<g id="node2" class="node">
<title>4</title>
<ellipse fill="none" stroke="black" cx="117" cy="-72" rx="27" ry="18"/>
<text xml:space="preserve" text-anchor="middle" x="117" y="-67.33" font-family="Times,serif" font-size="14.00">4</text>
</g>
<!-- 4&#45;&gt;1 -->
<g id="edge3" class="edge">
<title>4&#45;&gt;1</title>
<path fill="none" stroke="black" d="M91.95,-64.62C83.03,-61.88 72.71,-58.72 63.01,-55.74"/>
<polygon fill="black" stroke="black" points="64.05,-52.4 53.46,-52.81 62,-59.09 64.05,-52.4"/>
</g>
<!-- 2 -->
<g id="node3" class="node">
<title>2</title>
<ellipse fill="none" stroke="black" cx="117" cy="-18" rx="27" ry="18"/>
<text xml:space="preserve" text-anchor="middle" x="117" y="-13.32" font-family="Times,serif" font-size="14.00">2</text>
</g>
<!-- 2&#45;&gt;1 -->
<g id="edge1" class="edge">
<title>2&#45;&gt;1</title>
<path fill="none" stroke="black" d="M91.95,-25.38C83.03,-28.12 72.71,-31.28 63.01,-34.26"/>
<polygon fill="black" stroke="black" points="62,-30.91 53.46,-37.19 64.05,-37.6 62,-30.91"/>
</g>
<!-- 3 -->
<g id="node4" class="node">
<title>3</title>
<ellipse fill="none" stroke="black" cx="207" cy="-18" rx="27" ry="18"/>
<text xml:space="preserve" text-anchor="middle" x="207" y="-13.32" font-family="Times,serif" font-size="14.00">3</text>
</g>
<!-- 3&#45;&gt;2 -->
<g id="edge2" class="edge">
<title>3&#45;&gt;2</title>
<path fill="none" stroke="black" d="M179.6,-18C172.11,-18 163.82,-18 155.8,-18"/>
<polygon fill="black" stroke="black" points="155.9,-14.5 145.9,-18 155.9,-21.5 155.9,-14.5"/>
</g>
<!-- 5 -->
<g id="node5" class="node">
<title>5</title>
<ellipse fill="none" stroke="black" cx="297" cy="-18" rx="27" ry="18"/>
<text xml:space="preserve" text-anchor="middle" x="297" y="-13.32" font-family="Times,serif" font-size="14.00">5</text>
</g>
<!-- 5&#45;&gt;3 -->
<g id="edge4" class="edge">
<title>5&#45;&gt;3</title>
<path fill="none" stroke="black" d="M269.6,-18C262.11,-18 253.82,-18 245.8,-18"/>
<polygon fill="black" stroke="black" points="245.9,-14.5 235.9,-18 245.9,-21.5 245.9,-14.5"/>
</g>
</g>
</svg>
